<?xml version="1.0" encoding="utf-8"?>
<!-- Generator: Adobe Illustrator 26.0.3, SVG Export Plug-In . SVG Version: 6.00 Build 0)  -->
<svg version="1.1" id="Layer_1" xmlns="http://www.w3.org/2000/svg" xmlns:xlink="http://www.w3.org/1999/xlink" x="0px" y="0px"
	 viewBox="0 0 180 180" style="enable-background:new 0 0 180 180;" xml:space="preserve">
<style type="text/css">
	.st0{fill:#272643;}
	.st1{fill:url(#SVGID_1_);}
	.st2{fill:none;}
</style>
<path class="st0" d="M141.5,78.9c-4.8-24.2-26-42.3-51.5-42.3c-20.2,0-37.8,11.5-46.6,28.3C22.4,67.1,6,85,6,106.6
	c0,23.2,18.8,42,42,42h91c19.3,0,35-15.7,35-35C174,95.1,159.7,80.1,141.5,78.9z M139,134.6H48c-15.5,0-28-12.5-28-28
	c0-14.4,10.7-26.3,24.9-27.8l7.5-0.8l3.5-6.7C62.6,58.6,75.6,50.6,90,50.6c18.3,0,34.2,13,37.7,31l2.1,10.5l10.7,0.8
	c10.9,0.7,19.5,9.9,19.5,20.7C160,125.2,150.6,134.6,139,134.6z M100.2,78.6H79.8v21H62l28,28l28-28h-17.9V78.6z"/>
</svg>
