<?xml version="1.0" encoding="utf-8"?>
<!-- Generator: Adobe Illustrator 26.0.3, SVG Export Plug-In . SVG Version: 6.00 Build 0)  -->
<svg version="1.1" id="Layer_1" xmlns="http://www.w3.org/2000/svg" xmlns:xlink="http://www.w3.org/1999/xlink" x="0px" y="0px"
	 viewBox="0 0 180 180" style="enable-background:new 0 0 180 180;" xml:space="preserve">
<style type="text/css">
	.st0{fill:#272643;}
	.st1{fill:url(#SVGID_1_);}
	.st2{fill:none;}
</style>
<path class="st2" d="M2.3,7.4H175V180H2.3V7.4z"/>
<path class="st0" d="M54,115.3h50.3v14.4H54V115.3z M54,86.5H126v14.4H54V86.5z M54,57.7H126v14.4H54V57.7z M140.3,29h-30.1
	c-3-8.3-10.9-14.4-20.3-14.4s-17.3,6-20.3,14.4H39.7c-1,0-1.9,0.1-2.9,0.3c-2.8,0.6-5.3,2-7.3,4c-1.3,1.3-2.4,2.9-3.1,4.6
	c-0.7,1.7-1.2,3.5-1.2,5.5V144c0,1.9,0.4,3.9,1.2,5.6s1.8,3.2,3.1,4.6c1.9,1.9,4.5,3.4,7.3,4c0.9,0.1,1.9,0.2,2.9,0.2h100.7
	c7.9,0,14.4-6.5,14.4-14.4V43.4C154.7,35.4,148.3,29,140.3,29z M90,27.2c2.9,0,5.4,2.4,5.4,5.4c0,2.9-2.4,5.4-5.4,5.4
	s-5.4-2.4-5.4-5.4C84.6,29.6,87.1,27.2,90,27.2z M140.3,144H39.7V43.4h100.7V144z"/>
</svg>
