<?xml version="1.0" encoding="utf-8"?>
<!-- Generator: Adobe Illustrator 26.0.3, SVG Export Plug-In . SVG Version: 6.00 Build 0)  -->
<svg version="1.1" id="Layer_1" xmlns="http://www.w3.org/2000/svg" xmlns:xlink="http://www.w3.org/1999/xlink" x="0px" y="0px"
	 viewBox="0 0 180 180" style="enable-background:new 0 0 180 180;" xml:space="preserve">
<style type="text/css">
	.st0{fill:#272643;}
	.st1{fill:url(#SVGID_1_);}
	.st2{fill:none;}
</style>
<path class="st0" d="M105.1,14.6H44.8c-8.3,0-15,6.8-15,15.1l-0.1,120.6c0,8.3,6.7,15.1,15,15.1h90.5c8.3,0,15.1-6.8,15.1-15.1V59.9
	L105.1,14.6z M44.8,29.7h52.8l37.7,37.7v64.7l-13.9-13.9c9.6-14.6,8.1-34.4-4.8-47.3c-7.3-7.3-16.9-11-26.5-11s-19.2,3.7-26.6,11
	c-14.7,14.7-14.7,38.5,0,53.1c7.3,7.3,17,11,26.6,11c7.2,0,14.5-2.1,20.7-6.3l21.5,21.6H44.8V29.7z M105.9,113.4
	c-4.2,4.2-9.9,6.6-15.9,6.6s-11.7-2.3-15.9-6.6c-4.2-4.2-6.6-9.9-6.6-15.9c0-6,2.3-11.7,6.6-15.9c4.2-4.3,9.9-6.6,15.9-6.6
	s11.7,2.3,15.9,6.6c4.2,4.2,6.6,9.9,6.6,15.9C112.5,103.5,110.2,109.1,105.9,113.4z"/>
</svg>
